<svg xmlns="http://www.w3.org/2000/svg" xmlns:xlink="http://www.w3.org/1999/xlink" width="500" zoomAndPan="magnify" viewBox="0 0 375 374.999991" height="500" preserveAspectRatio="xMidYMid meet" version="1.0"><defs><clipPath id="534d50eb1a"><path d="M 0 3.566406 L 371.25 3.566406 L 371.25 374.816406 L 0 374.816406 Z M 0 3.566406 " clip-rule="nonzero"/></clipPath><clipPath id="d8dcac559d"><path d="M 242 70 L 288 70 L 288 308.410156 L 242 308.410156 Z M 242 70 " clip-rule="nonzero"/></clipPath><clipPath id="6c8154be06"><path d="M 265.078125 308.03125 C 252.804688 308.03125 242.804688 298.050781 242.804688 285.695312 L 242.804688 92.949219 C 242.804688 80.640625 252.757812 70.617188 265.078125 70.617188 C 277.355469 70.617188 287.351562 80.59375 287.351562 92.949219 L 287.351562 285.695312 C 287.304688 298.050781 277.355469 308.03125 265.078125 308.03125 Z M 265.078125 308.03125 " clip-rule="nonzero"/></clipPath><linearGradient x1="378.085977" gradientTransform="matrix(0.47392, 0, 0, 0.475212, 87.074755, 70.425358)" y1="500.442871" x2="373.106598" gradientUnits="userSpaceOnUse" y2="-0.0427897" id="e8a4aed24b"><stop stop-opacity="1" stop-color="rgb(90.99884%, 93.299866%, 94.499207%)" offset="0"/><stop stop-opacity="1" stop-color="rgb(90.99884%, 93.299866%, 94.499207%)" offset="0.00186843"/><stop stop-opacity="1" stop-color="rgb(90.99884%, 93.299866%, 94.499207%)" offset="0.5"/><stop stop-opacity="1" stop-color="rgb(91.119385%, 93.389893%, 94.572449%)" offset="0.515625"/><stop stop-opacity="1" stop-color="rgb(91.429138%, 93.6203%, 94.761658%)" offset="0.53125"/><stop stop-opacity="1" stop-color="rgb(91.80603%, 93.901062%, 94.992065%)" offset="0.546875"/><stop stop-opacity="1" stop-color="rgb(92.184448%, 94.181824%, 95.222473%)" offset="0.5625"/><stop stop-opacity="1" stop-color="rgb(92.56134%, 94.462585%, 95.452881%)" offset="0.578125"/><stop stop-opacity="1" stop-color="rgb(92.938232%, 94.743347%, 95.684814%)" offset="0.59375"/><stop stop-opacity="1" stop-color="rgb(93.31665%, 95.024109%, 95.915222%)" offset="0.609375"/><stop stop-opacity="1" stop-color="rgb(93.693542%, 95.304871%, 96.14563%)" offset="0.625"/><stop stop-opacity="1" stop-color="rgb(94.070435%, 95.585632%, 96.376038%)" offset="0.640625"/><stop stop-opacity="1" stop-color="rgb(94.448853%, 95.86792%, 96.606445%)" offset="0.65625"/><stop stop-opacity="1" stop-color="rgb(94.825745%, 96.148682%, 96.836853%)" offset="0.671875"/><stop stop-opacity="1" stop-color="rgb(95.204163%, 96.429443%, 97.068787%)" offset="0.6875"/><stop stop-opacity="1" stop-color="rgb(95.581055%, 96.710205%, 97.299194%)" offset="0.703125"/><stop stop-opacity="1" stop-color="rgb(95.957947%, 96.990967%, 97.529602%)" offset="0.71875"/><stop stop-opacity="1" stop-color="rgb(96.336365%, 97.271729%, 97.76001%)" offset="0.734375"/><stop stop-opacity="1" stop-color="rgb(96.713257%, 97.55249%, 97.990417%)" offset="0.75"/><stop stop-opacity="1" stop-color="rgb(97.090149%, 97.834778%, 98.220825%)" offset="0.765625"/><stop stop-opacity="1" stop-color="rgb(97.468567%, 98.11554%, 98.452759%)" offset="0.78125"/><stop stop-opacity="1" stop-color="rgb(97.845459%, 98.396301%, 98.683167%)" offset="0.796875"/><stop stop-opacity="1" stop-color="rgb(98.222351%, 98.677063%, 98.913574%)" offset="0.8125"/><stop stop-opacity="1" stop-color="rgb(98.600769%, 98.957825%, 99.143982%)" offset="0.828125"/><stop stop-opacity="1" stop-color="rgb(98.977661%, 99.238586%, 99.37439%)" offset="0.84375"/><stop stop-opacity="1" stop-color="rgb(99.354553%, 99.519348%, 99.604797%)" offset="0.859375"/><stop stop-opacity="1" stop-color="rgb(99.732971%, 99.801636%, 99.836731%)" offset="0.875"/><stop stop-opacity="1" stop-color="rgb(99.960327%, 99.971008%, 99.975586%)" offset="0.998132"/><stop stop-opacity="1" stop-color="rgb(100%, 100%, 100%)" offset="1"/></linearGradient><clipPath id="e64dce4a4f"><path d="M 164 70 L 288 70 L 288 239 L 164 239 Z M 164 70 " clip-rule="nonzero"/></clipPath><clipPath id="187fc30cea"><path d="M 187.167969 238.269531 C 183.089844 238.269531 178.96875 237.128906 175.269531 234.800781 C 164.890625 228.195312 161.8125 214.414062 168.398438 204.007812 L 246.3125 80.976562 C 252.898438 70.566406 266.644531 67.480469 277.023438 74.085938 C 287.402344 80.691406 290.480469 94.472656 283.894531 104.878906 L 205.980469 227.910156 C 201.761719 234.609375 194.558594 238.269531 187.167969 238.269531 Z M 187.167969 238.269531 " clip-rule="nonzero"/></clipPath><linearGradient x1="180.436228" gradientTransform="matrix(0.47392, 0, 0, 0.475212, 87.074755, 70.425358)" y1="366.727293" x2="409.343984" gradientUnits="userSpaceOnUse" y2="-18.013632" id="ef052b8c0e"><stop stop-opacity="1" stop-color="rgb(90.99884%, 93.299866%, 94.499207%)" offset="0"/><stop stop-opacity="1" stop-color="rgb(90.99884%, 93.299866%, 94.499207%)" offset="0.310084"/><stop stop-opacity="1" stop-color="rgb(90.99884%, 93.299866%, 94.499207%)" offset="0.5"/><stop stop-opacity="1" stop-color="rgb(91.062927%, 93.347168%, 94.537354%)" offset="0.53125"/><stop stop-opacity="1" stop-color="rgb(91.259766%, 93.493652%, 94.657898%)" offset="0.546875"/><stop stop-opacity="1" stop-color="rgb(91.526794%, 93.692017%, 94.821167%)" offset="0.5625"/><stop stop-opacity="1" stop-color="rgb(91.793823%, 93.890381%, 94.984436%)" offset="0.578125"/><stop stop-opacity="1" stop-color="rgb(92.060852%, 94.088745%, 95.147705%)" offset="0.59375"/><stop stop-opacity="1" stop-color="rgb(92.326355%, 94.288635%, 95.310974%)" offset="0.609375"/><stop stop-opacity="1" stop-color="rgb(92.593384%, 94.487%, 95.474243%)" offset="0.625"/><stop stop-opacity="1" stop-color="rgb(92.860413%, 94.685364%, 95.635986%)" offset="0.640625"/><stop stop-opacity="1" stop-color="rgb(93.127441%, 94.883728%, 95.799255%)" offset="0.65625"/><stop stop-opacity="1" stop-color="rgb(93.39447%, 95.083618%, 95.962524%)" offset="0.671875"/><stop stop-opacity="1" stop-color="rgb(93.661499%, 95.281982%, 96.125793%)" offset="0.6875"/><stop stop-opacity="1" stop-color="rgb(93.928528%, 95.480347%, 96.289062%)" offset="0.689916"/><stop stop-opacity="1" stop-color="rgb(94.062805%, 95.579529%, 96.37146%)" offset="0.703125"/><stop stop-opacity="1" stop-color="rgb(94.195557%, 95.678711%, 96.452332%)" offset="0.71875"/><stop stop-opacity="1" stop-color="rgb(94.462585%, 95.877075%, 96.615601%)" offset="0.734375"/><stop stop-opacity="1" stop-color="rgb(94.729614%, 96.076965%, 96.77887%)" offset="0.75"/><stop stop-opacity="1" stop-color="rgb(94.996643%, 96.27533%, 96.942139%)" offset="0.765625"/><stop stop-opacity="1" stop-color="rgb(95.263672%, 96.473694%, 97.103882%)" offset="0.78125"/><stop stop-opacity="1" stop-color="rgb(95.529175%, 96.672058%, 97.267151%)" offset="0.796875"/><stop stop-opacity="1" stop-color="rgb(95.796204%, 96.870422%, 97.43042%)" offset="0.8125"/><stop stop-opacity="1" stop-color="rgb(96.063232%, 97.070312%, 97.593689%)" offset="0.828125"/><stop stop-opacity="1" stop-color="rgb(96.330261%, 97.268677%, 97.756958%)" offset="0.84375"/><stop stop-opacity="1" stop-color="rgb(96.59729%, 97.467041%, 97.920227%)" offset="0.859375"/><stop stop-opacity="1" stop-color="rgb(96.864319%, 97.665405%, 98.083496%)" offset="0.875"/><stop stop-opacity="1" stop-color="rgb(97.131348%, 97.865295%, 98.246765%)" offset="0.890625"/><stop stop-opacity="1" stop-color="rgb(97.398376%, 98.06366%, 98.410034%)" offset="0.90625"/><stop stop-opacity="1" stop-color="rgb(97.665405%, 98.262024%, 98.573303%)" offset="0.921875"/><stop stop-opacity="1" stop-color="rgb(97.932434%, 98.460388%, 98.735046%)" offset="0.9375"/><stop stop-opacity="1" stop-color="rgb(98.199463%, 98.658752%, 98.898315%)" offset="0.953125"/><stop stop-opacity="1" stop-color="rgb(98.466492%, 98.858643%, 99.061584%)" offset="0.96875"/><stop stop-opacity="1" stop-color="rgb(98.733521%, 99.057007%, 99.224854%)" offset="0.984375"/><stop stop-opacity="1" stop-color="rgb(98.999023%, 99.255371%, 99.388123%)" offset="1"/></linearGradient><clipPath id="5fba85d245"><path d="M 87 70 L 210 70 L 210 239 L 87 239 Z M 87 70 " clip-rule="nonzero"/></clipPath><clipPath id="a19bf1ebe5"><path d="M 186.789062 238.460938 C 179.441406 238.414062 172.238281 234.707031 168.019531 228.003906 L 90.769531 104.59375 C 84.230469 94.1875 87.40625 80.40625 97.785156 73.847656 C 108.210938 67.289062 121.957031 70.425781 128.496094 80.878906 L 205.746094 204.292969 C 212.285156 214.746094 209.15625 228.480469 198.730469 235.039062 C 195.035156 237.367188 190.863281 238.460938 186.789062 238.460938 Z M 186.789062 238.460938 " clip-rule="nonzero"/></clipPath><linearGradient x1="297.946447" gradientTransform="matrix(0.47392, 0.00237606, -0.0023696, 0.475212, 87.561945, 70.044218)" y1="313.613086" x2="-43.266537" gradientUnits="userSpaceOnUse" y2="37.659173" id="d9a3aaa35b"><stop stop-opacity="1" stop-color="rgb(90.99884%, 93.299866%, 94.499207%)" offset="0"/><stop stop-opacity="1" stop-color="rgb(90.99884%, 93.299866%, 94.499207%)" offset="0.25"/><stop stop-opacity="1" stop-color="rgb(90.99884%, 93.299866%, 94.499207%)" offset="0.375"/><stop stop-opacity="1" stop-color="rgb(91.067505%, 93.35022%, 94.540405%)" offset="0.40625"/><stop stop-opacity="1" stop-color="rgb(91.246033%, 93.482971%, 94.650269%)" offset="0.414062"/><stop stop-opacity="1" stop-color="rgb(91.465759%, 93.64624%, 94.784546%)" offset="0.421875"/><stop stop-opacity="1" stop-color="rgb(91.685486%, 93.809509%, 94.918823%)" offset="0.429688"/><stop stop-opacity="1" stop-color="rgb(91.905212%, 93.972778%, 95.053101%)" offset="0.4375"/><stop stop-opacity="1" stop-color="rgb(92.124939%, 94.136047%, 95.187378%)" offset="0.445312"/><stop stop-opacity="1" stop-color="rgb(92.344666%, 94.299316%, 95.321655%)" offset="0.453125"/><stop stop-opacity="1" stop-color="rgb(92.562866%, 94.462585%, 95.455933%)" offset="0.460938"/><stop stop-opacity="1" stop-color="rgb(92.782593%, 94.62738%, 95.588684%)" offset="0.46875"/><stop stop-opacity="1" stop-color="rgb(93.002319%, 94.790649%, 95.722961%)" offset="0.476562"/><stop stop-opacity="1" stop-color="rgb(93.222046%, 94.953918%, 95.857239%)" offset="0.481927"/><stop stop-opacity="1" stop-color="rgb(93.331909%, 95.036316%, 95.924377%)" offset="0.484375"/><stop stop-opacity="1" stop-color="rgb(93.441772%, 95.117188%, 95.991516%)" offset="0.492188"/><stop stop-opacity="1" stop-color="rgb(93.661499%, 95.280457%, 96.125793%)" offset="0.5"/><stop stop-opacity="1" stop-color="rgb(93.881226%, 95.443726%, 96.260071%)" offset="0.507812"/><stop stop-opacity="1" stop-color="rgb(94.100952%, 95.606995%, 96.394348%)" offset="0.515625"/><stop stop-opacity="1" stop-color="rgb(94.320679%, 95.77179%, 96.528625%)" offset="0.518073"/><stop stop-opacity="1" stop-color="rgb(94.430542%, 95.854187%, 96.595764%)" offset="0.523438"/><stop stop-opacity="1" stop-color="rgb(94.540405%, 95.935059%, 96.662903%)" offset="0.53125"/><stop stop-opacity="1" stop-color="rgb(94.760132%, 96.098328%, 96.79718%)" offset="0.539062"/><stop stop-opacity="1" stop-color="rgb(94.979858%, 96.261597%, 96.931458%)" offset="0.546875"/><stop stop-opacity="1" stop-color="rgb(95.199585%, 96.424866%, 97.065735%)" offset="0.554688"/><stop stop-opacity="1" stop-color="rgb(95.419312%, 96.588135%, 97.200012%)" offset="0.5625"/><stop stop-opacity="1" stop-color="rgb(95.637512%, 96.751404%, 97.33429%)" offset="0.570312"/><stop stop-opacity="1" stop-color="rgb(95.857239%, 96.916199%, 97.468567%)" offset="0.578125"/><stop stop-opacity="1" stop-color="rgb(96.076965%, 97.079468%, 97.602844%)" offset="0.585938"/><stop stop-opacity="1" stop-color="rgb(96.296692%, 97.242737%, 97.737122%)" offset="0.59375"/><stop stop-opacity="1" stop-color="rgb(96.516418%, 97.406006%, 97.871399%)" offset="0.601562"/><stop stop-opacity="1" stop-color="rgb(96.736145%, 97.569275%, 98.005676%)" offset="0.609375"/><stop stop-opacity="1" stop-color="rgb(96.955872%, 97.732544%, 98.139954%)" offset="0.617188"/><stop stop-opacity="1" stop-color="rgb(97.175598%, 97.897339%, 98.274231%)" offset="0.625"/><stop stop-opacity="1" stop-color="rgb(97.395325%, 98.060608%, 98.408508%)" offset="0.632812"/><stop stop-opacity="1" stop-color="rgb(97.615051%, 98.223877%, 98.542786%)" offset="0.640625"/><stop stop-opacity="1" stop-color="rgb(97.834778%, 98.387146%, 98.677063%)" offset="0.648438"/><stop stop-opacity="1" stop-color="rgb(98.054504%, 98.550415%, 98.809814%)" offset="0.65625"/><stop stop-opacity="1" stop-color="rgb(98.274231%, 98.713684%, 98.944092%)" offset="0.664062"/><stop stop-opacity="1" stop-color="rgb(98.493958%, 98.876953%, 99.078369%)" offset="0.671875"/><stop stop-opacity="1" stop-color="rgb(98.713684%, 99.041748%, 99.212646%)" offset="0.679688"/><stop stop-opacity="1" stop-color="rgb(98.931885%, 99.205017%, 99.346924%)" offset="0.6875"/><stop stop-opacity="1" stop-color="rgb(99.151611%, 99.368286%, 99.481201%)" offset="0.695312"/><stop stop-opacity="1" stop-color="rgb(99.371338%, 99.531555%, 99.615479%)" offset="0.703125"/><stop stop-opacity="1" stop-color="rgb(99.591064%, 99.694824%, 99.749756%)" offset="0.710938"/><stop stop-opacity="1" stop-color="rgb(99.810791%, 99.858093%, 99.884033%)" offset="0.71875"/><stop stop-opacity="1" stop-color="rgb(99.960327%, 99.969482%, 99.975586%)" offset="0.75"/><stop stop-opacity="1" stop-color="rgb(100%, 100%, 100%)" offset="1"/></linearGradient><clipPath id="f0495148a4"><path d="M 87 70 L 132 70 L 132 308.410156 L 87 308.410156 Z M 87 70 " clip-rule="nonzero"/></clipPath><clipPath id="b91eb45ffd"><path d="M 109.347656 308.03125 C 97.027344 308.03125 87.074219 298.050781 87.074219 285.695312 L 87.074219 92.949219 C 87.074219 80.640625 97.027344 70.617188 109.347656 70.617188 C 121.671875 70.617188 131.625 80.59375 131.625 92.949219 L 131.625 285.695312 C 131.574219 298.050781 121.625 308.03125 109.347656 308.03125 Z M 109.347656 308.03125 " clip-rule="nonzero"/></clipPath><linearGradient x1="41.196334" gradientTransform="matrix(0.47392, 0, 0, 0.475212, 87.074755, 70.425358)" y1="500.945828" x2="52.710191" gradientUnits="userSpaceOnUse" y2="-0.547967" id="b1db611925"><stop stop-opacity="1" stop-color="rgb(90.99884%, 93.299866%, 94.499207%)" offset="0"/><stop stop-opacity="1" stop-color="rgb(90.99884%, 93.299866%, 94.499207%)" offset="0.00430119"/><stop stop-opacity="1" stop-color="rgb(90.99884%, 93.299866%, 94.499207%)" offset="0.5"/><stop stop-opacity="1" stop-color="rgb(90.99884%, 93.299866%, 94.499207%)" offset="0.53125"/><stop stop-opacity="1" stop-color="rgb(91.137695%, 93.403625%, 94.584656%)" offset="0.546875"/><stop stop-opacity="1" stop-color="rgb(91.427612%, 93.618774%, 94.761658%)" offset="0.5625"/><stop stop-opacity="1" stop-color="rgb(91.729736%, 93.843079%, 94.944763%)" offset="0.578125"/><stop stop-opacity="1" stop-color="rgb(92.030334%, 94.067383%, 95.129395%)" offset="0.59375"/><stop stop-opacity="1" stop-color="rgb(92.332458%, 94.291687%, 95.314026%)" offset="0.609375"/><stop stop-opacity="1" stop-color="rgb(92.633057%, 94.515991%, 95.497131%)" offset="0.625"/><stop stop-opacity="1" stop-color="rgb(92.935181%, 94.740295%, 95.681763%)" offset="0.640625"/><stop stop-opacity="1" stop-color="rgb(93.235779%, 94.9646%, 95.866394%)" offset="0.65625"/><stop stop-opacity="1" stop-color="rgb(93.537903%, 95.188904%, 96.051025%)" offset="0.671875"/><stop stop-opacity="1" stop-color="rgb(93.838501%, 95.413208%, 96.234131%)" offset="0.6875"/><stop stop-opacity="1" stop-color="rgb(94.140625%, 95.637512%, 96.418762%)" offset="0.703125"/><stop stop-opacity="1" stop-color="rgb(94.441223%, 95.861816%, 96.603394%)" offset="0.71875"/><stop stop-opacity="1" stop-color="rgb(94.743347%, 96.086121%, 96.786499%)" offset="0.734375"/><stop stop-opacity="1" stop-color="rgb(95.043945%, 96.310425%, 96.97113%)" offset="0.75"/><stop stop-opacity="1" stop-color="rgb(95.346069%, 96.534729%, 97.155762%)" offset="0.765625"/><stop stop-opacity="1" stop-color="rgb(95.648193%, 96.759033%, 97.338867%)" offset="0.78125"/><stop stop-opacity="1" stop-color="rgb(95.948792%, 96.983337%, 97.523499%)" offset="0.796875"/><stop stop-opacity="1" stop-color="rgb(96.250916%, 97.207642%, 97.70813%)" offset="0.8125"/><stop stop-opacity="1" stop-color="rgb(96.551514%, 97.431946%, 97.892761%)" offset="0.828125"/><stop stop-opacity="1" stop-color="rgb(96.853638%, 97.65625%, 98.075867%)" offset="0.84375"/><stop stop-opacity="1" stop-color="rgb(97.154236%, 97.880554%, 98.260498%)" offset="0.859375"/><stop stop-opacity="1" stop-color="rgb(97.45636%, 98.104858%, 98.445129%)" offset="0.875"/><stop stop-opacity="1" stop-color="rgb(97.756958%, 98.329163%, 98.628235%)" offset="0.890625"/><stop stop-opacity="1" stop-color="rgb(98.059082%, 98.553467%, 98.812866%)" offset="0.90625"/><stop stop-opacity="1" stop-color="rgb(98.35968%, 98.777771%, 98.997498%)" offset="0.921875"/><stop stop-opacity="1" stop-color="rgb(98.661804%, 99.002075%, 99.180603%)" offset="0.9375"/><stop stop-opacity="1" stop-color="rgb(98.962402%, 99.226379%, 99.365234%)" offset="0.953125"/><stop stop-opacity="1" stop-color="rgb(99.264526%, 99.450684%, 99.549866%)" offset="0.96875"/><stop stop-opacity="1" stop-color="rgb(99.565125%, 99.676514%, 99.734497%)" offset="0.984375"/><stop stop-opacity="1" stop-color="rgb(99.858093%, 99.894714%, 99.913025%)" offset="0.995699"/><stop stop-opacity="1" stop-color="rgb(100%, 100%, 100%)" offset="1"/></linearGradient></defs><g clip-path="url(#534d50eb1a)"><path fill="#057be9" d="M 371.25 189.191406 C 371.25 192.230469 371.175781 195.265625 371.027344 198.300781 C 370.878906 201.332031 370.652344 204.363281 370.355469 207.386719 C 370.058594 210.410156 369.6875 213.421875 369.242188 216.425781 C 368.796875 219.433594 368.277344 222.425781 367.683594 225.40625 C 367.089844 228.382812 366.425781 231.347656 365.6875 234.292969 C 364.949219 237.242188 364.140625 240.167969 363.257812 243.074219 C 362.375 245.980469 361.421875 248.867188 360.398438 251.726562 C 359.375 254.585938 358.28125 257.417969 357.121094 260.226562 C 355.957031 263.03125 354.726562 265.808594 353.429688 268.554688 C 352.128906 271.300781 350.761719 274.015625 349.332031 276.695312 C 347.898438 279.371094 346.402344 282.015625 344.839844 284.621094 C 343.277344 287.226562 341.652344 289.792969 339.964844 292.320312 C 338.277344 294.84375 336.53125 297.328125 334.71875 299.765625 C 332.910156 302.207031 331.042969 304.601562 329.113281 306.949219 C 327.1875 309.296875 325.203125 311.597656 323.164062 313.847656 C 321.125 316.101562 319.03125 318.300781 316.882812 320.449219 C 314.734375 322.59375 312.535156 324.691406 310.28125 326.730469 C 308.03125 328.769531 305.734375 330.753906 303.382812 332.679688 C 301.035156 334.609375 298.640625 336.476562 296.203125 338.285156 C 293.761719 340.09375 291.277344 341.84375 288.753906 343.53125 C 286.226562 345.21875 283.660156 346.84375 281.054688 348.40625 C 278.449219 349.96875 275.808594 351.464844 273.128906 352.898438 C 270.449219 354.328125 267.734375 355.695312 264.988281 356.992188 C 262.242188 358.292969 259.46875 359.523438 256.660156 360.6875 C 253.855469 361.847656 251.019531 362.941406 248.160156 363.964844 C 245.300781 364.988281 242.417969 365.941406 239.507812 366.824219 C 236.601562 367.703125 233.675781 368.515625 230.726562 369.253906 C 227.78125 369.992188 224.816406 370.65625 221.839844 371.25 C 218.859375 371.839844 215.867188 372.359375 212.863281 372.804688 C 209.855469 373.253906 206.84375 373.625 203.820312 373.921875 C 200.796875 374.21875 197.765625 374.441406 194.734375 374.59375 C 191.699219 374.742188 188.664062 374.816406 185.625 374.816406 C 182.585938 374.816406 179.550781 374.742188 176.515625 374.59375 C 173.484375 374.441406 170.453125 374.21875 167.429688 373.921875 C 164.40625 373.625 161.394531 373.253906 158.386719 372.804688 C 155.382812 372.359375 152.390625 371.839844 149.410156 371.25 C 146.433594 370.65625 143.46875 369.992188 140.523438 369.253906 C 137.574219 368.515625 134.648438 367.703125 131.742188 366.824219 C 128.832031 365.941406 125.949219 364.988281 123.089844 363.964844 C 120.230469 362.941406 117.394531 361.847656 114.589844 360.6875 C 111.78125 359.523438 109.007812 358.292969 106.261719 356.992188 C 103.515625 355.695312 100.800781 354.328125 98.121094 352.898438 C 95.441406 351.464844 92.800781 349.96875 90.195312 348.40625 C 87.589844 346.84375 85.023438 345.21875 82.496094 343.53125 C 79.972656 341.84375 77.488281 340.09375 75.046875 338.285156 C 72.609375 336.476562 70.214844 334.609375 67.867188 332.679688 C 65.515625 330.753906 63.21875 328.769531 60.96875 326.730469 C 58.714844 324.691406 56.515625 322.59375 54.367188 320.449219 C 52.21875 318.300781 50.125 316.101562 48.085938 313.847656 C 46.046875 311.597656 44.0625 309.296875 42.136719 306.949219 C 40.207031 304.601562 38.339844 302.207031 36.53125 299.765625 C 34.71875 297.328125 32.972656 294.84375 31.285156 292.320312 C 29.59375 289.792969 27.972656 287.226562 26.410156 284.621094 C 24.847656 282.015625 23.351562 279.371094 21.917969 276.695312 C 20.484375 274.015625 19.121094 271.300781 17.820312 268.554688 C 16.523438 265.808594 15.292969 263.03125 14.128906 260.226562 C 12.96875 257.417969 11.875 254.585938 10.851562 251.726562 C 9.828125 248.867188 8.875 245.980469 7.992188 243.074219 C 7.109375 240.167969 6.300781 237.242188 5.5625 234.292969 C 4.824219 231.347656 4.160156 228.382812 3.566406 225.402344 C 2.972656 222.425781 2.453125 219.433594 2.007812 216.425781 C 1.5625 213.421875 1.191406 210.410156 0.894531 207.386719 C 0.597656 204.363281 0.371094 201.332031 0.222656 198.300781 C 0.0742188 195.265625 0 192.230469 0 189.191406 C 0 186.152344 0.0742188 183.117188 0.222656 180.082031 C 0.371094 177.046875 0.597656 174.019531 0.894531 170.996094 C 1.191406 167.972656 1.5625 164.957031 2.007812 161.953125 C 2.453125 158.949219 2.972656 155.957031 3.566406 152.976562 C 4.160156 149.996094 4.824219 147.035156 5.5625 144.085938 C 6.300781 141.140625 7.109375 138.214844 7.992188 135.304688 C 8.875 132.398438 9.828125 129.515625 10.851562 126.65625 C 11.875 123.796875 12.96875 120.960938 14.128906 118.15625 C 15.292969 115.347656 16.523438 112.570312 17.820312 109.824219 C 19.121094 107.078125 20.484375 104.367188 21.917969 101.6875 C 23.351562 99.007812 24.847656 96.367188 26.410156 93.761719 C 27.972656 91.15625 29.59375 88.589844 31.285156 86.0625 C 32.972656 83.535156 34.71875 81.054688 36.53125 78.613281 C 38.339844 76.175781 40.207031 73.78125 42.136719 71.429688 C 44.0625 69.082031 46.046875 66.785156 48.085938 64.53125 C 50.125 62.28125 52.21875 60.082031 54.367188 57.933594 C 56.515625 55.785156 58.714844 53.691406 60.96875 51.652344 C 63.21875 49.613281 65.515625 47.628906 67.867188 45.699219 C 70.214844 43.773438 72.609375 41.90625 75.046875 40.09375 C 77.488281 38.285156 79.972656 36.535156 82.496094 34.847656 C 85.023438 33.160156 87.589844 31.535156 90.195312 29.976562 C 92.800781 28.414062 95.441406 26.917969 98.121094 25.484375 C 100.800781 24.050781 103.515625 22.6875 106.261719 21.386719 C 109.007812 20.089844 111.78125 18.859375 114.589844 17.695312 C 117.394531 16.53125 120.230469 15.441406 123.089844 14.417969 C 125.949219 13.394531 128.832031 12.441406 131.742188 11.558594 C 134.648438 10.675781 137.574219 9.867188 140.523438 9.128906 C 143.46875 8.390625 146.433594 7.726562 149.410156 7.132812 C 152.390625 6.539062 155.382812 6.019531 158.386719 5.574219 C 161.394531 5.128906 164.40625 4.757812 167.429688 4.460938 C 170.453125 4.160156 173.484375 3.9375 176.515625 3.789062 C 179.550781 3.640625 182.585938 3.566406 185.625 3.566406 C 188.664062 3.566406 191.699219 3.640625 194.734375 3.789062 C 197.765625 3.9375 200.796875 4.160156 203.820312 4.460938 C 206.84375 4.757812 209.855469 5.128906 212.863281 5.574219 C 215.867188 6.019531 218.859375 6.539062 221.839844 7.132812 C 224.816406 7.726562 227.78125 8.390625 230.726562 9.128906 C 233.675781 9.867188 236.601562 10.675781 239.507812 11.558594 C 242.417969 12.441406 245.300781 13.394531 248.160156 14.417969 C 251.019531 15.441406 253.855469 16.53125 256.660156 17.695312 C 259.46875 18.859375 262.242188 20.089844 264.988281 21.386719 C 267.734375 22.6875 270.449219 24.050781 273.128906 25.484375 C 275.808594 26.917969 278.449219 28.414062 281.054688 29.976562 C 283.660156 31.535156 286.226562 33.160156 288.753906 34.847656 C 291.277344 36.535156 293.761719 38.285156 296.203125 40.09375 C 298.640625 41.90625 301.035156 43.773438 303.382812 45.699219 C 305.734375 47.628906 308.03125 49.613281 310.28125 51.652344 C 312.535156 53.691406 314.734375 55.785156 316.882812 57.933594 C 319.03125 60.082031 321.125 62.28125 323.164062 64.53125 C 325.203125 66.785156 327.1875 69.082031 329.113281 71.429688 C 331.042969 73.78125 332.910156 76.175781 334.71875 78.613281 C 336.53125 81.054688 338.277344 83.535156 339.964844 86.0625 C 341.652344 88.589844 343.277344 91.15625 344.839844 93.761719 C 346.402344 96.367188 347.898438 99.007812 349.332031 101.6875 C 350.761719 104.367188 352.128906 107.078125 353.429688 109.824219 C 354.726562 112.570312 355.957031 115.347656 357.121094 118.15625 C 358.28125 120.960938 359.375 123.796875 360.398438 126.65625 C 361.421875 129.515625 362.375 132.398438 363.257812 135.304688 C 364.140625 138.214844 364.949219 141.140625 365.6875 144.085938 C 366.425781 147.035156 367.089844 149.996094 367.683594 152.976562 C 368.277344 155.957031 368.796875 158.949219 369.242188 161.953125 C 369.6875 164.957031 370.058594 167.972656 370.355469 170.996094 C 370.652344 174.019531 370.878906 177.046875 371.027344 180.082031 C 371.175781 183.117188 371.25 186.152344 371.25 189.191406 Z M 371.25 189.191406 " fill-opacity="1" fill-rule="nonzero"/></g><g clip-path="url(#d8dcac559d)"><g clip-path="url(#6c8154be06)"><path fill="url(#e8a4aed24b)" d="M 242.804688 70.617188 L 242.804688 308.03125 L 287.351562 308.03125 L 287.351562 70.617188 Z M 242.804688 70.617188 " fill-rule="nonzero"/></g></g><g clip-path="url(#e64dce4a4f)"><g clip-path="url(#187fc30cea)"><path fill="url(#ef052b8c0e)" d="M 161.8125 67.480469 L 161.8125 238.269531 L 290.480469 238.269531 L 290.480469 67.480469 Z M 161.8125 67.480469 " fill-rule="nonzero"/></g></g><g clip-path="url(#5fba85d245)"><g clip-path="url(#a19bf1ebe5)"><path fill="url(#d9a3aaa35b)" d="M 84.234375 66.648438 L 83.378906 238.457031 L 212.28125 239.101562 L 213.136719 67.292969 Z M 84.234375 66.648438 " fill-rule="nonzero"/></g></g><g clip-path="url(#f0495148a4)"><g clip-path="url(#b91eb45ffd)"><path fill="url(#b1db611925)" d="M 87.074219 70.617188 L 87.074219 308.03125 L 131.625 308.03125 L 131.625 70.617188 Z M 87.074219 70.617188 " fill-rule="nonzero"/></g></g></svg>